<svg width="300" height="199" viewBox="0 0 300 199" fill="none" xmlns="http://www.w3.org/2000/svg">
<g clip-path="url(#clip0_35_31)">
<path d="M107.61 114.526C117.891 96.4744 137.502 82.6136 158.263 83.9488C142.949 100.57 134.02 122.063 133.054 144.623C132.713 153.325 133.242 163.039 127.453 169.555C123.851 173.61 118.346 175.573 112.933 175.985C107.52 176.397 102.108 175.421 96.7669 174.449L95.4713 174.846C94.9781 154.087 97.329 132.578 107.61 114.526Z" fill="#F0F0F0"/>
<path d="M158.294 84.3835C142.942 91.7602 129.851 104.08 121.816 119.105C120.078 122.353 118.599 125.799 117.954 129.443C117.308 133.088 117.759 136.558 119.007 140.021C120.147 143.186 121.681 146.292 122.03 149.678C122.399 153.248 121.083 156.586 118.714 159.235C115.816 162.477 111.924 164.485 108.049 166.317C103.747 168.351 99.2465 170.396 96.1994 174.193C95.8302 174.653 95.1367 174.054 95.5053 173.595C100.807 166.989 109.881 165.748 116.174 160.427C119.11 157.944 121.315 154.563 121.176 150.601C121.054 147.137 119.475 143.932 118.293 140.738C117.051 137.383 116.432 134.01 116.877 130.433C117.333 126.775 118.68 123.264 120.327 119.985C124.04 112.591 129.122 105.803 134.943 99.9356C141.633 93.1907 149.43 87.638 157.997 83.5175C158.527 83.2626 158.82 84.1303 158.294 84.3835Z" fill="white"/>
<path d="M124.169 114.084C121.816 112.366 120.151 109.869 119.471 107.039C118.792 104.209 119.142 101.23 120.46 98.6345C120.729 98.1101 121.558 98.5019 121.289 99.0269C120.057 101.442 119.731 104.217 120.369 106.851C121.007 109.485 122.568 111.804 124.769 113.391C125.246 113.736 124.645 114.427 124.169 114.084Z" fill="white"/>
<path d="M118.217 138.492C124.114 137.632 129.47 134.585 133.216 129.958C133.587 129.499 134.281 130.098 133.91 130.556C130.003 135.363 124.423 138.523 118.284 139.405C117.699 139.488 117.635 138.575 118.217 138.492Z" fill="white"/>
<path d="M142.086 94.3169C142.858 95.1709 143.83 95.8201 144.916 96.2064C146.001 96.5926 147.166 96.7037 148.305 96.5297C148.889 96.4388 148.952 97.3521 148.372 97.4425C147.113 97.6289 145.827 97.5046 144.626 97.0805C143.426 96.6564 142.348 95.9454 141.487 95.0096C141.399 94.9282 141.344 94.8162 141.336 94.6963C141.327 94.5764 141.364 94.4577 141.44 94.3643C141.519 94.2729 141.632 94.2167 141.753 94.2078C141.874 94.199 141.994 94.2382 142.086 94.3169Z" fill="white"/>
<path d="M199.569 140.896C199.206 140.963 198.843 141.03 198.477 141.104C193.602 142.032 188.811 143.354 184.151 145.057C183.789 145.183 183.423 145.316 183.065 145.452C171.882 149.674 161.58 155.931 152.685 163.906C149.148 167.082 145.859 170.523 142.845 174.198C138.683 179.273 134.575 185.107 129.137 188.416C128.574 188.767 127.989 189.084 127.386 189.363L96.057 176.393C96.0006 176.327 95.9409 176.269 95.8842 176.204L94.6096 175.743C94.7518 175.543 94.9036 175.338 95.0457 175.138C95.1277 175.021 95.2167 174.907 95.2987 174.791C95.3555 174.714 95.4128 174.637 95.4597 174.565C95.4785 174.539 95.4977 174.514 95.5136 174.495C95.5605 174.423 95.6118 174.36 95.6557 174.295C96.5009 173.148 97.3556 172.005 98.2199 170.866C98.2228 170.859 98.2228 170.859 98.2328 170.855C104.84 162.193 112.23 154.005 120.63 147.198C120.883 146.993 121.138 146.781 121.405 146.582C125.209 143.535 129.255 140.802 133.505 138.413C135.836 137.112 138.231 135.93 140.682 134.87C147.02 132.146 153.747 130.433 160.618 129.795C174.316 128.526 188.268 131.643 198.773 140.232C199.042 140.452 199.304 140.669 199.569 140.896Z" fill="#F0F0F0"/>
<path d="M199.334 141.264C182.627 137.928 164.744 139.898 149.264 147.065C145.918 148.615 142.658 150.478 139.945 152.999C137.231 155.522 135.498 158.563 134.406 162.077C133.407 165.29 132.758 168.691 130.994 171.606C129.135 174.677 126.071 176.552 122.582 177.243C118.313 178.09 113.994 177.354 109.795 176.489C105.133 175.528 100.306 174.456 95.5829 175.656C95.0106 175.801 94.818 174.906 95.3894 174.761C103.607 172.673 111.601 177.135 119.835 176.668C123.677 176.45 127.477 175.075 129.755 171.829C131.748 168.989 132.42 165.482 133.403 162.221C134.435 158.796 135.976 155.731 138.488 153.143C141.059 150.495 144.253 148.501 147.545 146.873C154.969 143.201 163.121 140.835 171.309 139.648C180.719 138.284 190.294 138.536 199.619 140.394C200.196 140.509 199.907 141.378 199.334 141.264Z" fill="white"/>
<path d="M154.173 144.471C153.33 141.685 153.506 138.691 154.671 136.023C155.835 133.355 157.912 131.187 160.53 129.906C161.061 129.649 161.486 130.46 160.955 130.718C158.515 131.906 156.58 133.925 155.501 136.412C154.422 138.898 154.269 141.688 155.069 144.278C155.242 144.84 154.345 145.03 154.173 144.471Z" fill="white"/>
<path d="M134.697 160.382C139.924 163.239 146.039 164.025 151.821 162.582C152.394 162.439 152.586 163.334 152.014 163.477C145.995 164.967 139.633 164.136 134.2 161.151C133.682 160.866 134.182 160.099 134.697 160.382Z" fill="white"/>
<path d="M180.401 139.455C180.503 140.601 180.887 141.703 181.521 142.664C182.155 143.625 183.017 144.413 184.032 144.959C184.553 145.237 184.052 146.004 183.535 145.728C182.417 145.12 181.465 144.248 180.763 143.188C180.06 142.128 179.628 140.913 179.505 139.648C179.484 139.53 179.508 139.408 179.573 139.307C179.638 139.206 179.74 139.133 179.857 139.104C179.975 139.079 180.099 139.102 180.201 139.168C180.303 139.233 180.375 139.337 180.401 139.455Z" fill="white"/>
<path d="M139.889 162.295C135.502 141.12 130.017 134.06 130.017 134.06L127.922 132.438L125.403 130.485L125.415 130.234L124.817 130.031L124.677 129.922L124.447 129.746L124.41 129.785L124.332 129.866L112.93 125.998L98.4648 121.093L91.7666 112.403C90.6757 110.988 89.2713 109.844 87.6633 109.061C86.0554 108.278 84.2876 107.878 82.4987 107.891L61.1067 108.049C58.2143 108.07 55.4345 109.171 53.3138 111.134L39.2532 124.152L17.3442 134.597L17.3072 134.56L17.0771 134.724L13.692 136.339L13.8316 137.065L11.7364 138.574C11.7364 138.574 6.252 145.143 1.86442 164.846C0.748274 169.86 0.198865 180.614 0.000557285 193.867C-0.00940368 194.537 0.114257 195.203 0.364346 195.825C0.614435 196.447 0.985965 197.014 1.45733 197.491C1.9287 197.969 2.4905 198.348 3.11007 198.607C3.72963 198.866 4.39461 199 5.06632 199H122.087L136.693 199C137.364 199 138.028 198.866 138.648 198.608C139.267 198.349 139.828 197.97 140.3 197.493C140.771 197.016 141.143 196.45 141.393 195.828C141.643 195.207 141.768 194.542 141.759 193.872C141.565 179.451 141.016 167.732 139.889 162.295Z" fill="#3F3D56"/>
<path d="M154.904 18.4664C150.351 18.4664 145.985 20.2717 142.765 23.485C139.546 26.6983 137.737 31.0565 137.737 35.6008C137.737 40.1452 139.546 44.5034 142.765 47.7167C145.985 50.93 150.351 52.7352 154.904 52.7352H282.834C287.386 52.7352 291.753 50.93 294.972 47.7167C298.191 44.5034 300 40.1452 300 35.6008C300 31.0565 298.191 26.6983 294.972 23.485C291.753 20.2717 287.386 18.4664 282.834 18.4664H154.904Z" fill="#E5E5E5"/>
<path d="M154.904 21.9341C151.272 21.9341 147.79 23.374 145.222 25.937C142.654 28.5 141.211 31.9762 141.211 35.6008C141.211 39.2255 142.654 42.7017 145.222 45.2647C147.79 47.8277 151.272 49.2676 154.904 49.2676H282.834C286.465 49.2676 289.948 47.8277 292.515 45.2647C295.083 42.7017 296.526 39.2255 296.526 35.6008C296.526 31.9762 295.083 28.5 292.515 25.937C289.948 23.374 286.465 21.9341 282.834 21.9341H154.904Z" fill="white"/>
<path d="M75.1621 99.8695C90.6401 99.8695 103.188 87.3454 103.188 71.8961C103.188 56.4469 90.6401 43.9228 75.1621 43.9228C59.684 43.9228 47.1366 56.4469 47.1366 71.8961C47.1366 87.3454 59.684 99.8695 75.1621 99.8695Z" fill="#9E616A"/>
<path d="M67.9926 98.4998C67.8729 98.2367 67.7535 97.9726 67.6344 97.7077C67.6803 97.7092 67.7257 97.7158 67.7716 97.717L67.9926 98.4998Z" fill="#2F2E41"/>
<path d="M46.3572 45.1949C47.7747 44.0662 49.4313 43.0278 51.2436 43.0861C53.0558 43.1444 54.8936 44.7782 54.5181 46.5488C57.8468 40.6659 63.1452 36.1413 69.4831 33.7692C75.8211 31.3971 82.7936 31.329 89.1768 33.5769C93.681 35.163 98.098 38.3363 99.1327 42.9905C99.3983 44.1852 99.4553 45.4952 100.203 46.4654C101.145 47.6886 102.948 47.9653 104.433 47.535C104.447 47.5307 104.462 47.5264 104.477 47.5219C104.728 47.4365 104.998 47.4281 105.254 47.4978C105.51 47.5676 105.739 47.7123 105.911 47.9133C106.083 48.1142 106.191 48.3622 106.221 48.625C106.25 48.8879 106.2 49.1536 106.077 49.3877L104.803 51.7601C106.409 52.1176 108.078 52.0821 109.668 51.6569C109.932 51.5877 110.211 51.6018 110.467 51.6973C110.723 51.7927 110.943 51.9648 111.097 52.1899C111.251 52.415 111.331 52.6821 111.327 52.9546C111.322 53.2271 111.234 53.4916 111.073 53.7119C106.871 59.4707 99.85 63.1895 92.6855 63.1458C87.5934 63.1148 82.4489 61.3631 77.4931 62.5319C75.5759 62.9841 73.7845 63.859 72.2502 65.0923C70.7159 66.3257 69.4778 67.8863 68.6265 69.6595C67.7753 71.4328 67.3327 73.3738 67.331 75.3402C67.3294 77.3065 67.7688 79.2482 68.6171 81.0229C67.0947 79.3608 64.1516 79.7543 62.5943 81.384C61.037 83.0137 60.6339 85.446 60.7908 87.6927C61.0307 91.1289 62.3796 94.3667 63.8015 97.5181C51.8798 97.1435 40.6038 88.7961 36.8083 77.5061C32.9968 66.1688 36.9913 52.6524 46.3572 45.1949Z" fill="#2F2E41"/>
<path opacity="0.2" d="M27.5844 155.902L35.4449 198.59L40.1614 199L27.5844 155.902Z" fill="black"/>
<path opacity="0.2" d="M114.17 152.683L106.309 198.559L101.593 199L114.17 152.683Z" fill="black"/>
<path d="M53.0616 30.8283C51.5545 31.4564 49.9819 30.768 49.3223 29.1915C48.6527 27.5908 49.2781 25.966 50.8094 25.3278C52.3409 24.6895 53.8855 25.3796 54.5659 27.006C55.2361 28.6081 54.6175 30.1798 53.0616 30.8283ZM50.1746 22.1772L48.9762 22.6766C48.6769 22.7999 48.342 22.8066 48.038 22.6952C47.734 22.5839 47.4828 22.3628 47.3343 22.0755L47.2751 21.9598C45.9857 19.6387 45.838 16.8178 46.8386 13.5797C47.7655 10.675 48.1505 8.63219 47.3762 6.78147C46.4811 4.6417 44.5696 3.97141 42.132 4.9424C41.1866 5.33643 40.8857 5.33015 40.1417 6.06684C39.9799 6.22903 39.787 6.35703 39.5745 6.44321C39.3621 6.52939 39.1344 6.57198 38.9051 6.56844C38.6834 6.56583 38.4645 6.5187 38.2615 6.42984C38.0584 6.34098 37.8754 6.21222 37.7233 6.05123C37.4303 5.741 37.2661 5.33132 37.2639 4.90495C37.2618 4.47857 37.4218 4.06726 37.7117 3.75409C38.9622 2.44746 40.4705 1.41375 42.1414 0.71819C47.3788 -1.46467 50.0153 1.75801 51.2218 4.64201C52.4019 7.46289 51.738 10.0802 50.6714 13.4699C49.7776 16.2865 49.8297 18.3736 50.845 20.4487C50.9183 20.6056 50.9591 20.7757 50.9649 20.9487C50.9707 21.1217 50.9414 21.2941 50.8788 21.4555C50.8162 21.617 50.7216 21.7641 50.6005 21.8881C50.4795 22.0121 50.3346 22.1104 50.1746 22.1772Z" fill="#CF0CC6"/>
<path d="M183.162 43.7728H157.708C157.628 43.7733 157.547 43.7579 157.473 43.7274C157.398 43.6969 157.33 43.6519 157.272 43.595C157.215 43.5381 157.169 43.4705 157.138 43.396C157.107 43.3215 157.091 43.2415 157.091 43.1608C157.091 43.0801 157.107 43.0002 157.138 42.9257C157.169 42.8512 157.215 42.7835 157.272 42.7266C157.33 42.6698 157.398 42.6248 157.473 42.5943C157.547 42.5638 157.628 42.5483 157.708 42.5489H183.162C183.324 42.55 183.479 42.6149 183.593 42.7296C183.707 42.8442 183.771 42.9992 183.771 43.1608C183.771 43.3224 183.707 43.4774 183.593 43.5921C183.479 43.7067 183.324 43.7717 183.162 43.7728Z" fill="#CF0CC6"/>
<path d="M215.451 43.9767H189.998C189.917 43.9773 189.836 43.9619 189.762 43.9314C189.687 43.9009 189.619 43.8559 189.561 43.799C189.504 43.7421 189.458 43.6745 189.427 43.5999C189.396 43.5254 189.38 43.4455 189.38 43.3648C189.38 43.2841 189.396 43.2042 189.427 43.1296C189.458 43.0551 189.504 42.9875 189.561 42.9306C189.619 42.8737 189.687 42.8287 189.762 42.7982C189.836 42.7677 189.917 42.7523 189.998 42.7529H215.451C215.532 42.7523 215.612 42.7677 215.687 42.7982C215.762 42.8287 215.83 42.8737 215.887 42.9306C215.944 42.9875 215.99 43.0551 216.021 43.1296C216.052 43.2042 216.068 43.2841 216.068 43.3648C216.068 43.4455 216.052 43.5254 216.021 43.5999C215.99 43.6745 215.944 43.7421 215.887 43.799C215.83 43.8559 215.762 43.9009 215.687 43.9314C215.612 43.9619 215.532 43.9773 215.451 43.9767Z" fill="#CF0CC6"/>
<path d="M247.74 44.1807H222.287C222.125 44.1796 221.97 44.1147 221.856 44C221.742 43.8854 221.678 43.7304 221.678 43.5688C221.678 43.4072 221.742 43.2522 221.856 43.1375C221.97 43.0229 222.125 42.9579 222.287 42.9568H247.74C247.821 42.9563 247.901 42.9717 247.976 43.0022C248.051 43.0327 248.119 43.0777 248.176 43.1346C248.233 43.1915 248.279 43.2591 248.31 43.3336C248.341 43.4082 248.357 43.4881 248.357 43.5688C248.357 43.6495 248.341 43.7294 248.31 43.8039C248.279 43.8785 248.233 43.9461 248.176 44.003C248.119 44.0599 248.051 44.1048 247.976 44.1353C247.901 44.1659 247.821 44.1813 247.74 44.1807Z" fill="#CF0CC6"/>
<path d="M280.029 44.3847H254.576C254.414 44.3836 254.259 44.3186 254.145 44.204C254.031 44.0894 253.967 43.9343 253.967 43.7728C253.967 43.6112 254.031 43.4561 254.145 43.3415C254.259 43.2269 254.414 43.1619 254.576 43.1608H280.029C280.191 43.1619 280.346 43.2269 280.46 43.3415C280.574 43.4561 280.638 43.6112 280.638 43.7728C280.638 43.9343 280.574 44.0894 280.46 44.204C280.346 44.3186 280.191 44.3836 280.029 44.3847Z" fill="#CF0CC6"/>
<path d="M170.379 38.141C172.992 38.141 175.11 36.0269 175.11 33.4191C175.11 30.8113 172.992 28.6972 170.379 28.6972C167.766 28.6972 165.648 30.8113 165.648 33.4191C165.648 36.0269 167.766 38.141 170.379 38.141Z" fill="#CF0CC6"/>
<path d="M202.863 38.141C205.476 38.141 207.594 36.0269 207.594 33.4191C207.594 30.8113 205.476 28.6972 202.863 28.6972C200.25 28.6972 198.132 30.8113 198.132 33.4191C198.132 36.0269 200.25 38.141 202.863 38.141Z" fill="#CF0CC6"/>
<path d="M235.347 38.141C237.96 38.141 240.078 36.0269 240.078 33.4191C240.078 30.8113 237.96 28.6972 235.347 28.6972C232.735 28.6972 230.617 30.8113 230.617 33.4191C230.617 36.0269 232.735 38.141 235.347 38.141Z" fill="#CF0CC6"/>
<path d="M267.831 38.141C270.444 38.141 272.562 36.0269 272.562 33.4191C272.562 30.8113 270.444 28.6972 267.831 28.6972C265.219 28.6972 263.101 30.8113 263.101 33.4191C263.101 36.0269 265.219 38.141 267.831 38.141Z" fill="#CF0CC6"/>
</g>
<defs>
<clipPath id="clip0_35_31">
<rect width="300" height="199" fill="white"/>
</clipPath>
</defs>
</svg>
