<svg width="100" height="100" viewBox="0 0 100 100" fill="none" xmlns="http://www.w3.org/2000/svg">
<g clip-path="url(#clip0_60_37)">
<mask id="mask0_60_37" style="mask-type:luminance" maskUnits="userSpaceOnUse" x="0" y="0" width="100" height="100">
<path d="M100 0H0V100H100V0Z" fill="white"/>
</mask>
<g mask="url(#mask0_60_37)">
<path d="M45.802 5.355C47.852 2.46 52.149 2.46 54.199 5.355C55.829 7.656 59.006 8.216 61.324 6.611C64.241 4.592 68.278 6.062 69.215 9.483C69.959 12.203 72.754 13.816 75.48 13.101C78.912 12.201 82.203 14.963 81.913 18.498C81.681 21.309 83.757 23.781 86.564 24.042C90.096 24.37 92.244 28.09 90.762 31.313C89.585 33.875 90.688 36.908 93.237 38.113C96.444 39.629 97.19 43.859 94.695 46.381C92.713 48.386 92.713 51.613 94.695 53.618C97.19 56.139 96.444 60.37 93.237 61.886C90.688 63.091 89.585 66.125 90.762 68.686C92.244 71.909 90.096 75.629 86.564 75.958C83.757 76.218 81.681 78.69 81.913 81.501C82.203 85.037 78.912 87.797 75.48 86.898C72.754 86.182 69.959 87.796 69.215 90.516C68.278 93.938 64.241 95.407 61.324 93.387C59.006 91.783 55.829 92.343 54.199 94.644C52.149 97.54 47.852 97.54 45.802 94.644C44.172 92.343 40.994 91.783 38.675 93.387C35.759 95.407 31.722 93.938 30.785 90.516C30.041 87.796 27.247 86.182 24.52 86.898C21.089 87.797 17.797 85.037 18.087 81.501C18.318 78.69 16.244 76.218 13.436 75.958C9.90398 75.629 7.75498 71.909 9.23798 68.686C10.415 66.125 9.31198 63.091 6.76198 61.886C3.55498 60.37 2.80898 56.139 5.30398 53.618C7.28698 51.613 7.28698 48.386 5.30398 46.381C2.80898 43.859 3.55498 39.629 6.76198 38.113C9.31198 36.908 10.415 33.875 9.23798 31.313C7.75498 28.09 9.90398 24.37 13.436 24.042C16.244 23.781 18.318 21.309 18.087 18.498C17.797 14.963 21.089 12.201 24.52 13.101C27.247 13.816 30.041 12.203 30.785 9.483C31.722 6.062 35.759 4.592 38.675 6.611C40.994 8.216 44.172 7.656 45.802 5.355Z" fill="#CF0CC6"/>
<path d="M31.604 52.708C31.604 52.708 40.916 63.167 41.708 63.167C42.5 63.167 67.938 40.771 67.938 40.771" stroke="white" stroke-width="8" stroke-linecap="round"/>
</g>
</g>
<defs>
<clipPath id="clip0_60_37">
<rect width="100" height="100" fill="white"/>
</clipPath>
</defs>
</svg>
