<svg width="300" height="222" viewBox="0 0 300 222" fill="none" xmlns="http://www.w3.org/2000/svg">
<g clip-path="url(#clip0_8_2)">
<path d="M271.65 220.972H208.04V219.022C208.04 217.329 208.713 215.705 209.912 214.508C211.11 213.311 212.736 212.638 214.431 212.638H265.26C266.955 212.638 268.58 213.311 269.779 214.508C270.977 215.705 271.65 217.329 271.65 219.022V220.972Z" fill="#E6E6E6"/>
<path d="M238.357 213.027L240.291 212.249C220.051 162.061 222.001 98.7454 239.11 44.4315C241.143 38.1385 241.289 31.3892 239.532 25.014C237.775 18.6389 234.19 12.9159 229.22 8.54924C219.289 -0.303764 205.597 -2.46043 193.487 2.92029C181.532 8.23235 179.885 17.4852 179.885 26.6929H181.97C181.97 16.8641 184.073 9.38368 194.334 4.82391C205.685 -0.218819 218.52 1.80382 227.831 10.1039C232.5 14.2052 235.866 19.5803 237.517 25.5682C239.168 31.556 239.03 37.8952 237.121 43.8059C219.814 98.7469 217.978 162.498 238.357 213.027Z" fill="#E6E6E6"/>
<path d="M181.449 57.4234C185.48 57.4234 188.749 54.1586 188.749 50.1314C188.749 46.1042 185.48 42.8394 181.449 42.8394C177.418 42.8394 174.149 46.1042 174.149 50.1314C174.149 54.1586 177.418 57.4234 181.449 57.4234Z" fill="#E6E6E6"/>
<path d="M170.207 62.8434V49.0269H172.358V62.8434C172.974 63.0927 173.485 63.5485 173.803 64.1328C174.12 64.7171 174.224 65.3935 174.097 66.046C173.97 66.6985 173.62 67.2866 173.106 67.7093C172.592 68.1321 171.948 68.3633 171.282 68.3633C170.617 68.3633 169.972 68.1321 169.459 67.7093C168.945 67.2866 168.595 66.6985 168.468 66.046C168.341 65.3935 168.445 64.7171 168.762 64.1328C169.079 63.5485 169.59 63.0927 170.207 62.8434Z" fill="#E6E6E6"/>
<path d="M159.811 38.4121C159.815 35.236 161.079 32.191 163.327 29.9452C165.576 27.6993 168.624 26.436 171.803 26.4324H191.616C194.797 26.4324 197.847 27.6946 200.096 29.9412C202.345 32.1878 203.608 35.2349 203.608 38.4121C203.608 41.5893 202.345 44.6364 200.096 46.883C197.847 49.1296 194.797 50.3917 191.616 50.3917H171.803C168.624 50.3881 165.576 49.1248 163.327 46.879C161.079 44.6332 159.815 41.5882 159.811 38.4121Z" fill="#CF0CC6"/>
<path d="M131.895 112.598C133.885 87.1735 144.056 75.06 137.543 67.4636C131.305 60.1871 113.732 61.6902 102.447 68.6726C72.0079 87.5055 60.8562 162.566 100.027 199.239C137.248 234.088 207.791 222.927 223.468 194.403C227.125 187.748 230.031 176.081 224.678 169.015C211.386 151.473 163.062 183.247 141.577 163.374C128.844 151.596 130.804 126.551 131.895 112.598Z" fill="#3F3D56"/>
<path d="M155.163 99.9668C154.424 100.307 153.846 100.921 153.554 101.68C153.261 102.438 153.276 103.281 153.596 104.028C153.663 104.179 153.743 104.324 153.835 104.462L147.301 113.177L150.561 118.044L158.219 105.14C158.762 104.717 159.149 104.127 159.32 103.461C159.492 102.796 159.438 102.092 159.167 101.46C159.009 101.102 158.783 100.779 158.5 100.508C158.217 100.238 157.884 100.025 157.519 99.8836C157.154 99.7418 156.765 99.6731 156.373 99.6816C155.982 99.69 155.596 99.7754 155.238 99.9329C155.213 99.9438 155.188 99.9552 155.163 99.9668Z" fill="#FFB6B6"/>
<path d="M155.158 114.992C155.586 115.371 154.399 115.838 153.145 115.101C152.786 114.887 152.633 114.798 152.592 114.855C152.491 114.996 153.08 116.036 152.923 118.345C152.826 119.723 150.535 122.314 147.933 124.841C144.415 128.258 140.325 131.555 140.325 131.555L138.889 130.406L123.83 118.345L121.288 114.831C121.521 113.443 121.87 112.077 122.333 110.748C122.97 108.909 123.728 107.113 124.6 105.373C125.068 104.426 125.548 103.523 126.008 102.693L134.076 111.575L140.837 119.014C140.837 119.014 142.806 115.846 144.331 114.984C144.525 114.86 144.746 114.784 144.976 114.762C146.517 114.69 146.61 113.851 144.823 112.026C143.036 110.2 145.291 111.905 146.88 111.413C148.469 110.922 146.88 111.413 147.215 110.184C147.55 108.955 152.007 106.489 152.007 106.489L152.193 106.654L155.561 109.624L156.525 110.474C156.525 110.474 155.473 113.36 155.182 113.968C154.892 114.577 154.734 114.609 155.158 114.992Z" fill="#CF0CC6"/>
<path d="M243.954 170.973L244.118 166.528L227.033 163.78L226.791 170.34L243.954 170.973Z" fill="#FFB6B6"/>
<path d="M240.852 172.311L240.69 165.194L243.736 165.306L248.653 158.727C248.896 158.402 249.236 158.163 249.625 158.045C250.013 157.927 250.429 157.936 250.812 158.071C251.195 158.206 251.524 158.459 251.753 158.794C251.981 159.13 252.096 159.529 252.081 159.934L251.769 168.389L248.702 169.735L251.694 170.415L251.576 173.603L240.852 172.311Z" fill="#2F2E41"/>
<path d="M147.799 172.703L201.913 174.074C201.913 174.074 225.281 175.422 230.763 171.859L236.545 171.13L236.858 162.646C236.858 162.646 233.323 162.672 231.29 161.726C229.257 160.78 230.67 159.622 228.732 160.761C226.794 161.899 226.999 162.036 225.5 161.513C224.002 160.99 155.288 150.527 155.288 150.527L147.799 172.703Z" fill="#2F2E41"/>
<path d="M219.106 169.022L222.253 165.875L211.599 152.252L206.955 156.897L219.106 169.022Z" fill="#FFB6B6"/>
<path d="M215.922 166.284L220.648 160.956L222.805 163.108L230.889 161.625C231.288 161.552 231.7 161.608 232.065 161.785C232.431 161.963 232.729 162.252 232.918 162.611C233.107 162.97 233.176 163.38 233.115 163.781C233.054 164.182 232.867 164.553 232.58 164.84L226.595 170.826L223.43 169.729L225.16 172.26L222.904 174.517L215.922 166.284Z" fill="#2F2E41"/>
<path d="M126.45 143.098L126.988 155.59C127.621 170.296 143.833 179.197 156.405 171.519C156.637 171.377 156.869 171.231 157.102 171.079C157.102 171.079 161.868 169.8 161.724 167.776C161.579 165.751 162.743 164.765 163.774 165.318C164.804 165.87 178.294 146.744 178.294 146.744C178.294 146.744 206.323 160.711 212.507 163.999C212.507 163.999 218.321 154.918 217.899 155.013C217.478 155.109 183.224 131.159 183.224 131.159C183.224 131.159 177.643 125.517 170.721 129.242C170.577 129.789 170.7 129.808 170.7 129.808L147.834 148.422L144.603 142.292L126.45 143.098Z" fill="#2F2E41"/>
<path d="M148.01 127.48C147.966 128.057 147.884 128.631 147.764 129.197C147.599 130.016 147.333 130.812 146.973 131.567C146.973 131.567 146.973 132.409 145.359 135.23C143.746 138.051 145.763 136.842 146.973 138.937C148.183 141.029 146.973 140.066 145.63 141.411C145.243 141.803 144.968 142.291 144.834 142.825C144.7 143.358 144.711 143.918 144.867 144.446C144.867 144.446 127.537 144.458 124.31 143.249C121.083 142.04 120.348 135.23 123.241 134.557C126.129 133.884 122.365 133.215 120.667 131.663C118.969 130.112 122.365 127.573 122.365 127.573C122.365 127.573 120.966 125.159 121.082 117.055C121.099 116.31 121.168 115.567 121.288 114.831C121.521 113.443 121.87 112.077 122.333 110.748C122.97 108.909 123.728 107.113 124.6 105.373C125.068 104.426 125.548 103.523 126.008 102.693C126.081 102.564 126.149 102.439 126.222 102.314C127.097 100.767 127.896 99.5012 128.424 98.6912C128.832 98.0626 129.078 97.708 129.078 97.708L132.015 92.6062L141.817 97.1962L141.261 104.704L142.951 110.366L143.729 112.973L144.331 114.984L145.258 118.099C145.258 118.099 145.004 118.111 145.307 118.526C146.7 120.377 147.603 122.549 147.933 124.841C148.049 125.716 148.075 126.6 148.01 127.48Z" fill="#CF0CC6"/>
<path d="M176.319 128.289L176.135 128.23L152.672 120.683L161.318 92.3481C161.49 91.7839 161.788 91.2661 162.19 90.8337C162.592 90.4013 163.086 90.0656 163.637 89.8519C164.187 89.6383 164.779 89.5522 165.367 89.6002C165.956 89.6482 166.526 89.829 167.034 90.1291L182.027 98.9782C183.214 99.6779 184.117 100.772 184.578 102.069C185.04 103.366 185.03 104.784 184.551 106.075L176.319 128.289Z" fill="#2F2E41"/>
<path d="M176.414 130.091L152.763 122.483L161.409 94.1481C161.581 93.5839 161.879 93.066 162.28 92.6336C162.682 92.2012 163.177 91.8655 163.727 91.6519C164.277 91.4382 164.869 91.3521 165.458 91.4001C166.046 91.4481 166.616 91.629 167.125 91.929L182.834 99.764C185.194 101.157 185.139 104.761 184.043 107.718L176.414 130.091Z" fill="#CF0CC6"/>
<path d="M174.046 132.142C173.501 132.449 172.899 132.639 172.277 132.701C171.654 132.763 171.026 132.694 170.431 132.501L155.314 127.638C154.154 127.259 153.189 126.442 152.623 125.362C152.058 124.282 151.938 123.024 152.289 121.856L159.868 97.0176C160.019 96.5214 160.269 96.0604 160.601 95.6616C160.933 95.2628 161.341 94.9342 161.802 94.6952C162.263 94.4562 162.767 94.3116 163.285 94.2698C163.803 94.2279 164.323 94.2898 164.817 94.4517L180.483 99.5902C181.229 99.835 181.919 100.227 182.511 100.742C183.104 101.258 183.587 101.887 183.932 102.592C184.276 103.297 184.476 104.064 184.52 104.848C184.563 105.631 184.449 106.416 184.183 107.154L176.08 129.723C175.716 130.748 174.994 131.607 174.046 132.142Z" fill="#3F3D56"/>
<path d="M141.263 92.6933C147.243 92.6933 152.091 87.8506 152.091 81.8769C152.091 75.9031 147.243 71.0604 141.263 71.0604C135.283 71.0604 130.436 75.9031 130.436 81.8769C130.436 87.8506 135.283 92.6933 141.263 92.6933Z" fill="#FFB6B6"/>
<path d="M104.649 92.8562C105.643 94.7803 107.272 96.3018 109.26 97.1626C110.054 97.5238 110.888 97.7876 111.745 97.9483C111.988 96.9886 112.376 96.0715 112.895 95.2289C112.722 96.1786 112.722 97.1517 112.895 98.1014C114.201 98.2081 115.515 98.0452 116.755 97.6228C117.973 97.2091 119.077 96.5176 119.981 95.6031C120.884 94.6886 121.562 93.5763 121.96 92.3545C122.823 89.4874 121.894 86.4252 121.821 83.4325C121.745 80.4395 123.168 76.8597 126.142 76.4894C128.407 76.2069 128.127 76.4262 129.755 78.0247C127.478 80.5511 133.028 91.7406 136.007 91.2462C137.69 90.9666 138.929 89.6312 139.262 89.6775C140.968 93.8494 135.838 99.766 139.907 101.708L139.605 101.309C137.475 97.7949 143.776 91.8592 141.647 88.3448C141.053 87.3617 140.436 86.2091 140.803 85.1215C141.152 84.0874 142.917 83.7602 143.29 84.7013C142.684 82.5442 144.375 80.0123 146.62 79.7921C148.614 79.5956 148.499 80.1635 150.401 80.6817C150.644 79.8632 150.994 79.0805 151.443 78.3537C151.291 79.1829 151.272 80.0309 151.387 80.8659C152.073 80.9477 152.767 80.801 153.361 80.4486C155.117 79.3968 155.169 76.6821 153.963 75.0299C152.754 73.3773 150.73 72.5614 148.777 71.944C148.759 67.8178 137.645 65.8426 135.601 69.6787C135.39 66.5726 131.826 64.4803 128.756 65.0079C125.685 65.5356 123.263 67.995 121.786 70.7363C120.31 73.4753 119.577 76.5424 118.496 79.46C117.415 82.3775 115.87 85.2868 113.282 87.0178C110.694 88.7467 106.848 88.9037 104.687 86.6629C104.194 87.6197 103.934 88.679 103.927 89.7551C103.921 90.8311 104.168 91.8935 104.649 92.8562Z" fill="#2F2E41"/>
<path d="M115.759 142.319C115.983 142.14 116.226 141.986 116.484 141.861C120.628 139.8 133.516 134.452 143.594 134.671C162.984 135.093 187.66 156.47 181.917 170.826C177.547 181.749 155.822 187.964 139.963 182.993C117.746 176.03 108.977 147.721 115.759 142.319Z" fill="#3F3D56"/>
<path d="M35.2635 221.013C28.9276 219.819 23.3193 191.304 35.7849 177.261C40.0558 172.45 45.3832 170.355 52.4695 168.407C93.2566 157.189 124.366 167.88 128.546 170.49C132.717 173.094 140.03 212.333 130.679 217.888C125.418 221.013 114.99 222.575 109.823 218.929C102.221 213.565 114.981 199.649 109.302 190.282C102.856 179.653 68.9167 176.073 51.9009 186.636C33.7468 197.907 71.1926 227.784 35.2635 221.013Z" fill="#F2F2F2"/>
<path d="M77.6241 172.532H53.4189C47.4436 166.812 43.1713 161.299 46.5918 156.722C46.5918 155.407 47.1149 154.145 48.046 153.215C48.9772 152.285 50.2401 151.762 51.5569 151.762H79.486C80.8029 151.762 82.0658 152.285 82.9969 153.215C83.9281 154.145 84.4512 155.407 84.4512 156.722C85.7535 161.937 83.4269 167.207 77.6241 172.532Z" fill="#CCCCCC"/>
<path d="M73.277 145.518C73.0474 145.529 72.82 145.468 72.6258 145.345C72.4315 145.223 72.2798 145.043 72.1911 144.831C72.1024 144.619 72.081 144.385 72.1299 144.161C72.1788 143.936 72.2956 143.733 72.4644 143.577L72.5412 143.271C72.5311 143.247 72.5209 143.223 72.5107 143.198C72.2793 142.652 71.8917 142.187 71.3963 141.86C70.901 141.534 70.3201 141.361 69.7267 141.363C69.1332 141.365 68.5537 141.542 68.0608 141.873C67.5679 142.203 67.1837 142.671 66.9564 143.219C66.048 145.404 64.8914 147.594 64.6066 149.905C64.4811 150.926 64.5341 151.962 64.763 152.965C62.6293 148.316 61.5213 143.262 61.5142 138.148C61.5138 136.864 61.5851 135.582 61.728 134.306C61.8461 133.26 62.0099 132.222 62.2195 131.191C63.3631 125.598 65.8185 120.356 69.3839 115.895C71.1096 114.955 72.5052 113.508 73.3826 111.751C73.7005 111.119 73.9251 110.445 74.0496 109.749C73.8549 109.775 73.3156 106.813 73.4624 106.631C73.1912 106.22 72.7056 106.016 72.4093 105.614C70.9357 103.618 68.9056 103.967 67.8457 106.679C65.5817 107.821 65.5598 109.714 66.949 111.534C67.8328 112.693 67.9543 114.26 68.7297 115.5C68.6499 115.602 68.567 115.701 68.4872 115.803C67.0287 117.676 65.7576 119.688 64.692 121.809C64.9512 119.433 64.6419 117.029 63.7896 114.796C62.9258 112.714 61.3068 110.961 59.8811 109.161C58.1686 107 54.6568 107.943 54.3551 110.683C54.3522 110.71 54.3493 110.736 54.3466 110.763C54.5583 110.882 54.7656 111.009 54.9685 111.143C55.2233 111.313 55.4207 111.556 55.5349 111.84C55.6491 112.124 55.6748 112.436 55.6085 112.735C55.5422 113.034 55.3871 113.306 55.1634 113.515C54.9398 113.724 54.6581 113.861 54.3552 113.908L54.3242 113.913C54.3997 114.675 54.533 115.431 54.7232 116.173C52.8941 123.239 56.8429 125.812 62.4812 125.928C62.6056 125.992 62.7269 126.056 62.8514 126.116C61.7808 129.147 61.1092 132.304 60.8536 135.508C60.7089 137.398 60.7175 139.297 60.8792 141.186L60.8696 141.119C60.4611 139.018 59.3395 137.123 57.6942 135.753C55.2506 133.748 51.7983 133.01 49.1621 131.398C48.8819 131.218 48.5561 131.122 48.2232 131.122C47.8903 131.121 47.564 131.215 47.283 131.393C47.002 131.572 46.7778 131.827 46.637 132.128C46.4962 132.429 46.4447 132.765 46.4884 133.094C46.4919 133.118 46.4955 133.141 46.4992 133.165C46.8922 133.325 47.2748 133.509 47.6449 133.716C47.8566 133.836 48.0639 133.962 48.2667 134.096C48.5215 134.266 48.719 134.509 48.8332 134.793C48.9474 135.077 48.973 135.389 48.9067 135.688C48.8404 135.987 48.6853 136.259 48.4617 136.468C48.2381 136.678 47.9564 136.815 47.6535 136.861L47.6225 136.866C47.6002 136.869 47.581 136.872 47.5587 136.876C48.2302 138.477 49.1726 139.951 50.3447 141.234C51.4883 147.402 56.4003 147.987 61.6546 146.191H61.6578C62.2343 148.693 63.0696 151.129 64.1502 153.459H73.0539C73.0859 153.361 73.1146 153.259 73.1433 153.16C72.3192 153.212 71.4918 153.162 70.6796 153.013C71.3402 152.203 72.0008 151.387 72.6614 150.578C72.6761 150.562 72.69 150.546 72.7029 150.53C73.038 150.115 73.3763 149.704 73.7114 149.29L73.7115 149.289C73.7294 148.019 73.5832 146.751 73.277 145.518Z" fill="#CCCCCC"/>
<path d="M103.646 171.237C103.793 171.666 104.074 172.038 104.446 172.298C104.818 172.559 105.264 172.695 105.718 172.687L114.598 172.459C115.056 172.45 115.499 172.293 115.86 172.012C116.221 171.731 116.482 171.341 116.603 170.899L117.859 157.476C118.305 157.678 118.79 157.778 119.28 157.768C120.138 157.746 120.953 157.385 121.545 156.763C122.137 156.142 122.457 155.311 122.436 154.453C122.414 153.595 122.053 152.781 121.43 152.19C120.808 151.599 119.976 151.279 119.117 151.3C118.922 151.299 118.727 151.32 118.535 151.361C118.327 151.136 118.075 150.957 117.793 150.836C117.512 150.714 117.208 150.653 116.902 150.656L103.243 151.009C103.129 151.013 103.017 151.027 102.906 151.05C102.606 151.106 102.322 151.226 102.072 151.4C101.823 151.575 101.614 151.801 101.459 152.063C101.304 152.325 101.207 152.618 101.175 152.92C101.143 153.223 101.176 153.529 101.272 153.818L103.646 171.237ZM118.117 156.565L119.011 153.366C119.113 152.997 119.115 152.607 119.018 152.236C119.061 152.236 119.1 152.216 119.143 152.216C119.756 152.203 120.349 152.434 120.792 152.857C121.235 153.281 121.492 153.863 121.506 154.475C121.52 155.087 121.291 155.68 120.869 156.124C120.446 156.568 119.864 156.826 119.252 156.842C118.855 156.855 118.463 156.759 118.117 156.565Z" fill="#CCCCCC"/>
<path d="M102.906 151.051C103.197 152.713 106.468 153.881 110.402 153.678C114.02 153.512 116.978 152.243 117.52 150.739C117.319 150.679 117.111 150.652 116.902 150.656L103.243 151.009C103.129 151.013 103.017 151.027 102.906 151.051Z" fill="white"/>
<path d="M168.203 115.471C167.389 115.501 166.62 115.846 166.058 116.434C165.496 117.022 165.185 117.806 165.193 118.618C165.197 118.784 165.215 118.948 165.246 119.111L155.861 124.646L156.997 130.391L169.033 121.42C169.696 121.238 170.281 120.842 170.695 120.294C171.11 119.745 171.331 119.075 171.324 118.388C171.316 117.996 171.232 117.611 171.075 117.252C170.918 116.894 170.692 116.57 170.41 116.299C170.127 116.028 169.794 115.815 169.43 115.673C169.065 115.53 168.676 115.461 168.285 115.468C168.257 115.469 168.23 115.47 168.203 115.471Z" fill="#FFB6B6"/>
<path d="M160.515 128.667C160.263 128.331 160.156 128.19 160.098 128.229C159.952 128.317 160.093 129.504 159.059 131.573C157.604 134.48 142.347 138.931 142.347 138.931L140.468 135.496L132.206 120.398L129.358 108.297C129.258 107.875 129.21 107.443 129.214 107.01C131.753 105.225 134.45 103.674 137.27 102.377C138.397 103.016 139.256 104.038 139.691 105.258L145.378 121.189L147.648 127.55C147.648 127.55 151.652 124.69 153.104 125.215C154.554 125.743 154.966 125.002 154.018 122.631C153.07 120.26 154.493 122.701 156.148 122.856C157.807 123.013 156.148 122.856 156.932 121.85C157.715 120.844 162.781 120.278 162.781 120.278L162.888 120.502L164.851 124.536L165.413 125.695C165.413 125.695 163.332 127.951 162.83 128.4C162.326 128.853 162.17 128.822 162.417 129.338C162.661 129.851 161.386 129.828 160.515 128.667Z" fill="#CF0CC6"/>
</g>
<defs>
<clipPath id="clip0_8_2">
<rect width="300" height="222" fill="white"/>
</clipPath>
</defs>
</svg>
