<svg width="300" height="149" viewBox="0 0 300 149" fill="none" xmlns="http://www.w3.org/2000/svg">
<g clip-path="url(#clip0_21_2)">
<path d="M172.019 145.814C170.162 145.812 168.381 145.072 167.069 143.754C165.757 142.437 165.019 140.651 165.019 138.788C165.019 136.926 165.757 135.139 167.069 133.822C168.381 132.505 170.162 131.764 172.019 131.763H276.056C275.532 130.799 274.76 129.995 273.82 129.434C272.88 128.873 271.806 128.577 270.712 128.576H63.9139C61.2159 128.579 58.6294 129.657 56.7228 131.571C54.8162 133.486 53.7455 136.082 53.7458 138.788C53.7472 141.494 54.8185 144.089 56.7247 146.003C58.6309 147.917 61.2164 148.995 63.9139 149H270.712C271.806 148.999 272.88 148.703 273.82 148.142C274.76 147.581 275.532 146.777 276.056 145.814L172.019 145.814Z" fill="#CCCCCC"/>
<path d="M276.194 135.634H177.279C177.127 135.633 176.982 135.573 176.875 135.465C176.768 135.358 176.708 135.212 176.708 135.06C176.708 134.908 176.768 134.763 176.875 134.655C176.982 134.548 177.127 134.487 177.279 134.487H276.194C276.345 134.487 276.49 134.548 276.597 134.655C276.704 134.763 276.764 134.908 276.764 135.06C276.764 135.212 276.704 135.358 276.597 135.465C276.49 135.573 276.345 135.633 276.194 135.634Z" fill="#CCCCCC"/>
<path d="M276.194 139.362H177.279C177.127 139.362 176.982 139.301 176.874 139.194C176.767 139.086 176.707 138.94 176.707 138.788C176.707 138.636 176.767 138.49 176.874 138.383C176.982 138.275 177.127 138.215 177.279 138.215H276.194C276.346 138.215 276.491 138.275 276.598 138.383C276.705 138.49 276.766 138.636 276.766 138.788C276.766 138.94 276.705 139.086 276.598 139.194C276.491 139.301 276.346 139.362 276.194 139.362Z" fill="#CCCCCC"/>
<path d="M276.194 143.089H177.279C177.127 143.089 176.982 143.029 176.875 142.921C176.768 142.813 176.708 142.668 176.708 142.516C176.708 142.364 176.768 142.218 176.875 142.111C176.982 142.003 177.127 141.943 177.279 141.942H276.194C276.345 141.943 276.49 142.003 276.597 142.111C276.704 142.218 276.764 142.364 276.764 142.516C276.764 142.668 276.704 142.813 276.597 142.921C276.49 143.029 276.345 143.089 276.194 143.089Z" fill="#CCCCCC"/>
<path d="M145.146 126.028C143.289 126.026 141.509 125.286 140.196 123.968C138.884 122.651 138.146 120.865 138.146 119.002C138.146 117.14 138.884 115.353 140.196 114.036C141.509 112.719 143.289 111.978 145.146 111.977H249.183C248.659 111.013 247.887 110.209 246.947 109.648C246.007 109.087 244.933 108.791 243.839 108.79H37.0411C34.3431 108.793 31.7566 109.871 29.85 111.785C27.9434 113.7 26.8726 116.296 26.8728 119.002C26.8742 121.708 27.9456 124.303 29.8518 126.217C31.7581 128.131 34.3436 129.209 37.0411 129.214H243.839C244.933 129.213 246.007 128.917 246.947 128.356C247.887 127.795 248.659 126.991 249.183 126.028L145.146 126.028Z" fill="#CF0CC6"/>
<path d="M249.321 115.848H150.406C150.254 115.847 150.109 115.787 150.002 115.679C149.896 115.572 149.835 115.426 149.835 115.274C149.835 115.122 149.896 114.977 150.002 114.869C150.109 114.762 150.254 114.701 150.406 114.701H249.321C249.473 114.701 249.618 114.761 249.725 114.869C249.833 114.976 249.893 115.122 249.893 115.274C249.893 115.426 249.833 115.572 249.725 115.68C249.618 115.787 249.473 115.848 249.321 115.848Z" fill="#CCCCCC"/>
<path d="M249.321 119.576H150.406C150.254 119.576 150.109 119.515 150.002 119.408C149.894 119.3 149.834 119.154 149.834 119.002C149.834 118.85 149.894 118.704 150.002 118.597C150.109 118.489 150.254 118.429 150.406 118.429H249.321C249.473 118.429 249.618 118.489 249.725 118.597C249.832 118.704 249.893 118.85 249.893 119.002C249.893 119.154 249.832 119.3 249.725 119.408C249.618 119.515 249.473 119.576 249.321 119.576Z" fill="#CCCCCC"/>
<path d="M249.321 123.303H150.406C150.254 123.303 150.109 123.242 150.002 123.135C149.896 123.027 149.835 122.882 149.835 122.73C149.835 122.578 149.896 122.432 150.002 122.325C150.109 122.217 150.254 122.157 150.406 122.156H249.321C249.396 122.156 249.471 122.171 249.54 122.2C249.61 122.228 249.673 122.271 249.726 122.324C249.779 122.377 249.822 122.44 249.85 122.51C249.879 122.58 249.894 122.654 249.894 122.73C249.894 122.805 249.879 122.88 249.85 122.95C249.822 123.019 249.779 123.083 249.726 123.136C249.673 123.189 249.61 123.231 249.54 123.26C249.471 123.289 249.396 123.304 249.321 123.303Z" fill="#CCCCCC"/>
<path d="M118.273 105.581C116.416 105.58 114.636 104.839 113.323 103.522C112.011 102.204 111.273 100.418 111.273 98.5558C111.273 96.6934 112.011 94.9071 113.323 93.5897C114.636 92.2723 116.416 91.5316 118.273 91.5303H222.31C221.787 90.5668 221.014 89.7625 220.074 89.2018C219.134 88.6411 218.06 88.3448 216.967 88.3439H10.1681C7.47007 88.347 4.88362 89.4242 2.97703 91.339C1.07043 93.2538 -0.000335686 95.8495 7.89414e-08 98.5558C0.00136509 101.262 1.07268 103.856 2.9789 105.771C4.88513 107.685 7.47059 108.763 10.1681 108.768H216.967C218.06 108.767 219.134 108.47 220.074 107.91C221.014 107.349 221.787 106.545 222.31 105.581L118.273 105.581Z" fill="#CCCCCC"/>
<path d="M222.448 95.4015H123.533C123.382 95.4011 123.236 95.3406 123.13 95.2331C123.023 95.1255 122.963 94.9799 122.963 94.828C122.963 94.6761 123.023 94.5305 123.13 94.4229C123.236 94.3154 123.382 94.2549 123.533 94.2545H222.448C222.6 94.2545 222.745 94.3149 222.852 94.4225C222.96 94.53 223.02 94.6759 223.02 94.828C223.02 94.9801 222.96 95.126 222.852 95.2335C222.745 95.3411 222.6 95.4015 222.448 95.4015Z" fill="#CCCCCC"/>
<path d="M222.448 99.1293H123.533C123.458 99.1293 123.384 99.1145 123.314 99.0857C123.245 99.0569 123.182 99.0146 123.129 98.9613C123.076 98.9081 123.033 98.8449 123.005 98.7753C122.976 98.7057 122.961 98.6311 122.961 98.5558C122.961 98.4805 122.976 98.4059 123.005 98.3363C123.033 98.2667 123.076 98.2035 123.129 98.1503C123.182 98.097 123.245 98.0548 123.314 98.026C123.384 97.9971 123.458 97.9823 123.533 97.9823H222.448C222.523 97.9823 222.598 97.9971 222.667 98.026C222.736 98.0548 222.799 98.097 222.852 98.1503C222.905 98.2035 222.948 98.2667 222.976 98.3363C223.005 98.4059 223.02 98.4805 223.02 98.5558C223.02 98.6311 223.005 98.7057 222.976 98.7753C222.948 98.8449 222.905 98.9081 222.852 98.9613C222.799 99.0146 222.736 99.0569 222.667 99.0857C222.598 99.1145 222.523 99.1293 222.448 99.1293Z" fill="#CCCCCC"/>
<path d="M222.448 102.857H123.533C123.381 102.857 123.236 102.797 123.129 102.689C123.021 102.582 122.961 102.436 122.961 102.284C122.961 102.132 123.021 101.986 123.129 101.878C123.236 101.771 123.381 101.71 123.533 101.71H222.448C222.523 101.71 222.598 101.725 222.667 101.754C222.736 101.783 222.799 101.825 222.852 101.878C222.905 101.931 222.948 101.995 222.976 102.064C223.005 102.134 223.02 102.208 223.02 102.284C223.02 102.359 223.005 102.434 222.976 102.503C222.948 102.573 222.905 102.636 222.852 102.689C222.799 102.742 222.736 102.785 222.667 102.813C222.598 102.842 222.523 102.857 222.448 102.857Z" fill="#CCCCCC"/>
<path d="M224.732 61.9635C224.19 61.9627 223.668 61.7551 223.272 61.3828C222.876 61.0104 222.636 60.5012 222.601 59.9582L222.284 55.0965C222.246 54.5286 222.436 53.9693 222.81 53.5415C223.184 53.1136 223.712 52.8524 224.278 52.8152L262.251 50.3208C262.85 50.2814 263.45 50.3608 264.018 50.5542C264.586 50.7476 265.111 51.0514 265.562 51.4481C266.013 51.8449 266.381 52.3268 266.647 52.8665C266.912 53.4061 267.069 53.9929 267.108 54.5933C267.147 55.1937 267.068 55.7959 266.875 56.3657C266.682 56.9354 266.379 57.4615 265.984 57.9138C265.588 58.3662 265.108 58.7359 264.57 59.002C264.032 59.2681 263.447 59.4253 262.848 59.4646L224.875 61.9589C224.827 61.9619 224.78 61.9635 224.732 61.9635Z" fill="#CF0CC6"/>
<path d="M232.22 62.5904C231.667 62.5894 231.135 62.3739 230.737 61.9888C230.339 61.6038 230.105 61.0791 230.083 60.5247L229.813 53.2632C229.802 52.9817 229.847 52.7008 229.945 52.4366C230.043 52.1725 230.191 51.9302 230.382 51.7237C230.573 51.5171 230.803 51.3504 231.059 51.2329C231.314 51.1155 231.59 51.0496 231.87 51.0391L263.097 49.8685C263.664 49.8472 264.216 50.0528 264.632 50.4399C265.047 50.8269 265.293 51.3639 265.314 51.9325L265.585 59.194C265.595 59.4755 265.55 59.7564 265.453 60.0206C265.355 60.2848 265.206 60.527 265.015 60.7336C264.824 60.9401 264.594 61.1068 264.339 61.2243C264.084 61.3417 263.808 61.4076 263.527 61.4181L232.301 62.5887C232.274 62.5899 232.247 62.5904 232.22 62.5904Z" fill="#2F2E41"/>
<path d="M268.812 129.527H263.955C263.388 129.527 262.844 129.3 262.443 128.898C262.042 128.496 261.816 127.951 261.816 127.382V86.7753C261.816 86.2065 262.042 85.6611 262.443 85.2589C262.844 84.8566 263.388 84.6304 263.955 84.6297H268.812C269.379 84.6304 269.923 84.8566 270.324 85.2589C270.725 85.6611 270.951 86.2065 270.951 86.7753V127.382C270.951 127.951 270.725 128.496 270.324 128.898C269.923 129.3 269.379 129.527 268.812 129.527Z" fill="#2F2E41"/>
<path d="M247.252 108.063L243.099 105.538C242.614 105.242 242.266 104.766 242.131 104.214C241.996 103.661 242.085 103.078 242.378 102.591L263.363 67.8653C263.657 67.3792 264.132 67.0301 264.683 66.8946C265.233 66.7591 265.815 66.8483 266.301 67.1426L270.454 69.6681C270.939 69.9635 271.287 70.4397 271.422 70.9922C271.557 71.5446 271.468 72.1283 271.175 72.6151L250.191 107.341C249.896 107.827 249.421 108.176 248.871 108.311C248.32 108.447 247.738 108.358 247.252 108.063Z" fill="#2F2E41"/>
<path d="M261.435 42.2525C270.704 42.2525 278.219 34.7153 278.219 25.4176C278.219 16.12 270.704 8.58273 261.435 8.58273C252.166 8.58273 244.651 16.12 244.651 25.4176C244.651 34.7153 252.166 42.2525 261.435 42.2525Z" fill="#CF0CC6"/>
<path d="M252.35 31.1656C251.81 30.9877 251.315 30.6959 250.896 30.3098C250.619 30.0341 250.406 29.701 250.271 29.3339C250.136 28.9667 250.082 28.5744 250.114 28.1843C250.132 27.9064 250.213 27.6363 250.352 27.3952C250.491 27.154 250.683 26.9484 250.915 26.7942C251.515 26.4081 252.317 26.4069 253.135 26.7682L253.104 20.1961L253.762 20.193L253.798 27.9192L253.291 27.5992C252.703 27.2288 251.863 26.968 251.27 27.35C251.123 27.4509 251.002 27.5843 250.915 27.74C250.828 27.8957 250.778 28.0693 250.769 28.2475C250.747 28.538 250.788 28.83 250.888 29.1035C250.988 29.3769 251.146 29.6255 251.351 29.8322C252.078 30.5286 253.138 30.7463 254.347 30.9409L254.243 31.5927C253.601 31.5074 252.967 31.3644 252.35 31.1656Z" fill="#2F2E41"/>
<path d="M246.319 19.864L246.233 20.5185L249.747 20.984L249.833 20.3296L246.319 19.864Z" fill="#2F2E41"/>
<path d="M257.412 21.3331L257.326 21.9875L260.84 22.4531L260.926 21.7987L257.412 21.3331Z" fill="#2F2E41"/>
<path d="M275.449 97.6701H247.147C246.406 97.6693 245.695 97.3734 245.17 96.8474C244.646 96.3214 244.351 95.6082 244.35 94.8643L250.275 49.2898C250.28 48.5493 250.577 47.8408 251.1 47.3191C251.624 46.7973 252.333 46.5047 253.071 46.5053H263.115C267.127 46.5098 270.973 48.1104 273.81 50.9558C276.646 53.8012 278.242 57.6591 278.247 61.6831V94.8643C278.246 95.6082 277.951 96.3214 277.426 96.8474C276.902 97.3734 276.191 97.6693 275.449 97.6701Z" fill="#2F2E41"/>
<path d="M299.799 79.7119C299.974 80.0872 300.037 80.5052 299.98 80.9155C299.924 81.3259 299.75 81.7111 299.481 82.0249L296.305 85.7116C296.121 85.9248 295.898 86.0996 295.647 86.2261C295.396 86.3526 295.122 86.4283 294.842 86.4488C294.562 86.4693 294.28 86.4342 294.014 86.3456C293.747 86.257 293.501 86.1166 293.288 85.9324L264.492 60.9781C264.038 60.5848 263.666 60.1056 263.396 59.568C263.127 59.0303 262.966 58.4447 262.922 57.8446C262.878 57.2444 262.953 56.6415 263.142 56.0703C263.33 55.499 263.629 54.9706 264.021 54.5153C264.413 54.06 264.891 53.6866 265.427 53.4165C265.963 53.1464 266.547 52.9848 267.146 52.9411C267.744 52.8974 268.345 52.9723 268.914 53.1616C269.484 53.3509 270.011 53.6508 270.464 54.0443L299.26 78.9985C299.488 79.1954 299.672 79.4386 299.799 79.7119Z" fill="#CF0CC6"/>
<path d="M293.443 71.4768C293.618 71.8521 293.681 72.2701 293.625 72.6804C293.568 73.0907 293.395 73.4759 293.125 73.7897L287.701 80.0868C287.33 80.5168 286.804 80.7816 286.238 80.8229C285.672 80.8643 285.114 80.679 284.684 80.3076L261.039 59.8165C260.826 59.6323 260.652 59.4079 260.525 59.1562C260.399 58.9044 260.324 58.6302 260.303 58.3491C260.283 58.0681 260.318 57.7858 260.406 57.5183C260.495 57.2508 260.635 57.0034 260.818 56.7902L266.242 50.4931C266.426 50.2799 266.649 50.1051 266.9 49.9786C267.151 49.8521 267.425 49.7764 267.705 49.7559C267.985 49.7354 268.267 49.7705 268.533 49.8591C268.8 49.9477 269.047 50.0881 269.259 50.2723L292.905 70.7634C293.132 70.9604 293.316 71.2035 293.443 71.4768Z" fill="#2F2E41"/>
<path d="M261.749 15.4328C259.505 13.5705 256.506 15.3319 253.969 15.0819C251.541 14.8427 249.587 12.6999 249.055 10.3941C248.434 7.70395 249.78 4.97129 251.808 3.24799C254.03 1.36055 257.012 0.774031 259.854 1.06124C263.112 1.39041 266.113 2.85335 268.815 4.64056C271.422 6.3107 273.827 8.27779 275.983 10.5026C277.915 12.5628 279.566 15.031 280.131 17.8421C280.645 20.3967 280.344 23.2443 278.874 25.4448C278.094 26.5731 277.037 27.4808 275.806 28.0802C274.522 28.743 273.149 29.2255 271.907 29.9709C270.03 31.098 268.229 33.395 268.868 35.7375C269.005 36.2493 269.265 36.7194 269.626 37.1064C270.06 37.5712 270.814 36.9318 270.379 36.4658C269.616 35.6473 269.624 34.5362 270.004 33.5345C270.456 32.4052 271.278 31.4635 272.334 30.8639C273.634 30.0854 275.075 29.5927 276.409 28.8807C277.686 28.2293 278.787 27.2779 279.619 26.1077C281.188 23.8304 281.615 20.8975 281.198 18.1998C280.747 15.2804 279.197 12.6493 277.276 10.4563C275.184 8.06972 272.633 6.06438 270.031 4.2688C267.24 2.3421 264.166 0.726823 260.787 0.185796C257.859 -0.283191 254.701 0.100077 252.179 1.74406C249.825 3.27861 248.047 5.87506 247.92 8.7409C247.879 10.0445 248.186 11.3354 248.808 12.4808C249.43 13.6261 250.345 14.5846 251.458 15.2574C252.601 15.9139 253.92 16.194 255.229 16.0583C256.63 15.9415 258.025 15.4841 259.439 15.5768C260.078 15.6035 260.691 15.8385 261.185 16.2462C261.675 16.6531 262.235 15.8364 261.749 15.4328Z" fill="#2F2E41"/>
<path d="M242.013 103.177C242.019 103.14 242.027 103.103 242.035 103.066C242.093 102.79 242.206 102.529 242.365 102.297C242.525 102.065 242.729 101.867 242.966 101.715L247.048 99.0746C247.525 98.7668 248.104 98.6614 248.658 98.7813C249.213 98.9013 249.697 99.237 250.005 99.7146L262.596 119.296C262.904 119.774 263.009 120.355 262.89 120.911C262.77 121.468 262.435 121.953 261.958 122.262L257.876 124.903C257.399 125.21 256.82 125.316 256.266 125.196C255.711 125.076 255.227 124.74 254.919 124.263L242.328 104.681C242.04 104.237 241.928 103.7 242.013 103.177Z" fill="#2F2E41"/>
</g>
<defs>
<clipPath id="clip0_21_2">
<rect width="300" height="149" fill="white"/>
</clipPath>
</defs>
</svg>
